<?xml version="1.0" encoding="UTF-8" standalone="no"?>
<svg
   height="16px"
   viewBox="0 0 16 16"
   width="16px"
   version="1.1"
   id="svg26"
   sodipodi:docname="com.github.FontManager.FontManager-symbolic.svg"
   inkscape:version="1.3.2 (091e20ef0f, 2023-11-25)"
   xmlns:inkscape="http://www.inkscape.org/namespaces/inkscape"
   xmlns:sodipodi="http://sodipodi.sourceforge.net/DTD/sodipodi-0.dtd"
   xmlns:xlink="http://www.w3.org/1999/xlink"
   xmlns="http://www.w3.org/2000/svg"
   xmlns:svg="http://www.w3.org/2000/svg">
  <defs
     id="defs26" />
  <sodipodi:namedview
     id="namedview26"
     pagecolor="#ffffff"
     bordercolor="#000000"
     borderopacity="0.25"
     inkscape:showpageshadow="2"
     inkscape:pageopacity="0.0"
     inkscape:pagecheckerboard="0"
     inkscape:deskcolor="#d1d1d1"
     inkscape:export-bgcolor="#00000000"
     inkscape:zoom="39.75"
     inkscape:cx="7.9874214"
     inkscape:cy="8"
     inkscape:window-width="1600"
     inkscape:window-height="834"
     inkscape:window-x="0"
     inkscape:window-y="0"
     inkscape:window-maximized="1"
     inkscape:current-layer="svg26" />
  <filter
     id="a"
     height="1"
     width="1"
     x="0"
     y="0">
    <feColorMatrix
       color-interpolation-filters="sRGB"
       values="0 0 0 0 1 0 0 0 0 1 0 0 0 0 1 0 0 0 1 0"
       id="feColorMatrix1" />
  </filter>
  <mask
     id="b">
    <g
       filter="url(#a)"
       id="g1">
      <rect
         fill-opacity="0.5"
         height="19.2"
         width="19.2"
         x="-1.6"
         y="-1.6"
         id="rect1" />
    </g>
  </mask>
  <linearGradient
     id="c"
     gradientUnits="userSpaceOnUse">
    <stop
       offset="0"
       stop-color="#ffffff"
       id="stop1" />
    <stop
       offset="1"
       stop-color="#ffffff"
       stop-opacity="0"
       id="stop2" />
  </linearGradient>
  <linearGradient
     id="d"
     gradientTransform="matrix(1.209037,0,0,1.153529,14.32742,23.174747)"
     x1="36.357143"
     x2="36.357143"
     xlink:href="#c"
     y1="6"
     y2="63.893143" />
  <clipPath
     id="e">
    <rect
       height="152"
       width="192"
       id="rect2" />
  </clipPath>
  <mask
     id="f">
    <g
       filter="url(#a)"
       id="g3">
      <rect
         fill-opacity="0.4"
         height="19.2"
         width="19.2"
         x="-1.6"
         y="-1.6"
         id="rect3" />
    </g>
  </mask>
  <radialGradient
     id="g"
     cx="48"
     cy="90.171875"
     gradientTransform="matrix(1.399234,0,0,1.148808,5.197957,23.402145)"
     r="42"
     xlink:href="#c" />
  <clipPath
     id="h">
    <rect
       height="152"
       width="192"
       id="rect4" />
  </clipPath>
  <mask
     id="i">
    <g
       filter="url(#a)"
       id="g5">
      <rect
         fill-opacity="0.2"
         height="19.2"
         width="19.2"
         x="-1.6"
         y="-1.6"
         id="rect5" />
    </g>
  </mask>
  <linearGradient
     id="j"
     gradientUnits="userSpaceOnUse">
    <stop
       offset="0"
       stop-color="#333333"
       stop-opacity="0"
       id="stop5" />
    <stop
       offset="0.25"
       id="stop6" />
    <stop
       offset="0.5"
       id="stop7" />
    <stop
       offset="0.75"
       id="stop8" />
    <stop
       offset="1"
       stop-color="#333333"
       stop-opacity="0"
       id="stop9" />
  </linearGradient>
  <linearGradient
     id="k"
     gradientTransform="matrix(1.33609,0,0,0.563141,3.592507,65.433365)"
     x1="16"
     x2="80"
     xlink:href="#j"
     y1="71"
     y2="71" />
  <clipPath
     id="l">
    <rect
       height="152"
       width="192"
       id="rect9" />
  </clipPath>
  <mask
     id="m">
    <g
       filter="url(#a)"
       id="g10">
      <rect
         fill-opacity="0.12"
         height="19.2"
         width="19.2"
         x="-1.6"
         y="-1.6"
         id="rect10" />
    </g>
  </mask>
  <linearGradient
     id="n"
     gradientTransform="matrix(1.039181,0,0,0.563141,36.846298,11.37186)"
     x1="16"
     x2="80"
     xlink:href="#j"
     y1="71"
     y2="71" />
  <clipPath
     id="o">
    <rect
       height="152"
       width="192"
       id="rect11" />
  </clipPath>
  <mask
     id="p">
    <g
       filter="url(#a)"
       id="g12">
      <rect
         fill-opacity="0.15"
         height="19.2"
         width="19.2"
         x="-1.6"
         y="-1.6"
         id="rect12" />
    </g>
  </mask>
  <linearGradient
     id="q"
     gradientTransform="matrix(0,1.126281,-1.187635,0,15.468861,24.887238)"
     x1="48"
     x2="80"
     xlink:href="#j"
     y1="-23.5"
     y2="-23.5" />
  <clipPath
     id="r">
    <rect
       height="152"
       width="192"
       id="rect13" />
  </clipPath>
  <mask
     id="s">
    <g
       filter="url(#a)"
       id="g14">
      <rect
         fill-opacity="0.15"
         height="19.2"
         width="19.2"
         x="-1.6"
         y="-1.6"
         id="rect14" />
    </g>
  </mask>
  <linearGradient
     id="t"
     gradientTransform="matrix(0,1.407852,-0.593818,0,143.73347,11.37186)"
     x1="16"
     x2="80"
     xlink:href="#j"
     y1="71"
     y2="71" />
  <clipPath
     id="u">
    <rect
       height="152"
       width="192"
       id="rect15" />
  </clipPath>
  <path
     d="m -52.275391,14.09375 c -0.785346,-0.01364 -1.57615,0.02591 -2.357421,0.0039 h -84.531248 c -2.72926,-0.04129 -5.42289,1.580434 -6.59375,4.046875 0.13015,-0.264375 0.27884,-0.519522 0.45312,-0.761719 0.92293,-1.368941 2.31215,-2.442517 3.91016,-2.890624 -0.40372,0.156532 -0.79271,0.357039 -1.15625,0.595703 -0.36354,0.238664 -0.70074,0.514846 -1.00586,0.824218 -0.30513,0.309373 -0.57816,0.652826 -0.80664,1.021485 -0.22848,0.368658 -0.41328,0.763165 -0.54688,1.179687 -0.44203,1.276121 -0.26428,2.637199 -0.30078,3.960938 4.5e-4,8.991466 2.7e-4,17.983059 0,26.974609 6e-5,-9.009117 3.9e-4,-18.018274 0.002,-27.027344 0.0204,-2.580054 2.037,-4.887514 4.52539,-5.439453 1.31131,-0.293903 2.66376,-0.141941 3.99609,-0.179687 28.2439,0.0012 56.486589,-0.0024 84.730469,0.002 2.61376,0.0082 5.1547,1.87175 5.736328,4.457031 0.110007,0.519171 0.1406,1.044658 0.150391,1.572266 -2.1e-4,-0.909488 2.35e-4,-1.819032 0,-2.728516 -0.01432,-0.46111 -0.0878,-0.917716 -0.214844,-1.357422 -0.127042,-0.439705 -0.3081,-0.862856 -0.535156,-1.259765 -0.227057,-0.39691 -0.500087,-0.766886 -0.814454,-1.09961 -0.314366,-0.332723 -0.66962,-0.627853 -1.058593,-0.875 -0.26345,-0.213021 -1.185423,-0.608675 -1.052735,-0.578125 0.259605,0.07996 0.511976,0.177869 0.759766,0.289063 0.08535,0.03827 0.166268,0.08519 0.25,0.126953 0.155239,0.07746 0.309836,0.157144 0.458984,0.246094 0.100109,0.0597 0.195871,0.124839 0.292969,0.189453 0.12937,0.08608 0.257263,0.173197 0.380859,0.267578 0.09443,0.07211 0.184591,0.147901 0.275391,0.224609 0.12076,0.101963 0.237674,0.206775 0.351563,0.316406 0.0798,0.07685 0.15817,0.15397 0.234375,0.234375 0.117369,0.123783 0.227632,0.253096 0.335937,0.384766 0.0645,0.07845 0.130306,0.155263 0.191406,0.236328 0.11136,0.147651 0.213087,0.301336 0.3125,0.457031 0.04764,0.07464 0.09978,0.146311 0.144532,0.222657 0.136945,0.233538 0.262937,0.472908 0.371093,0.720703 -0.819921,-1.927872 -2.530927,-3.479209 -4.564453,-4.042969 -0.759451,-0.233472 -1.538871,-0.300809 -2.324219,-0.314453 z m -93.615229,4.371094 c -0.0692,0.162906 -0.14981,0.319573 -0.20313,0.490234 -0.009,0.02705 -0.0109,0.05492 -0.0195,0.08203 0.0378,-0.123612 0.0908,-0.241901 0.14062,-0.361328 0.0265,-0.07058 0.0529,-0.141407 0.082,-0.210937 z m 100.818354,0.93164 c 0.146461,0.651902 0.198757,1.312701 0.210938,1.976563 -3.1e-5,-0.179033 3.3e-5,-0.358077 0,-0.53711 -0.0053,-0.492286 -0.09134,-0.970554 -0.210938,-1.439453 z m -101.343754,1.941407 c -0.008,0.703179 0.019,1.409836 -0.002,2.109375 7.3e-4,13.031751 3.9e-4,26.063781 0,39.095703 -4.1e-4,-13.734985 -7.8e-4,-27.470097 0.002,-41.205078 z m 101.556645,41.205078 c 4.2e-4,13.534638 4.31e-4,27.069302 -0.002,40.603511 -0.0016,-0.60579 -0.01299,-1.21264 0.002,-1.8164 -9.64e-4,-12.928743 -3.96e-4,-25.85798 0,-38.787111 z m -1.208984,0.002 c 2.13e-4,13.369818 0.0011,26.739739 -0.002,40.109378 0.01311,-0.70698 -0.01674,-1.41705 0.0039,-2.12305 -9.4e-4,-12.661839 -0.0022,-25.324097 -0.002,-37.986328 z M -146.41602,103.98828 c 2e-5,0.0755 -1e-5,0.15104 0,0.22656 0.007,0.16423 0.0319,0.3266 0.0488,0.49024 -0.0214,-0.23174 -0.0403,-0.4638 -0.0469,-0.69727 -1.8e-4,-0.007 -0.002,-0.013 -0.002,-0.0195 z"
       style="display:inline;opacity:1;vector-effect:none;fill:#3d3846;fill-opacity:0.99607843;stroke:none;stroke-width:2;stroke-linecap:butt;stroke-linejoin:miter;stroke-miterlimit:4;stroke-dasharray:none;stroke-dashoffset:0;stroke-opacity:1;marker:none;marker-start:none;marker-mid:none;marker-end:none;paint-order:normal;enable-background:new"
     id="path40" />
  <path
     d="m -141.39453,14.492188 c -1.59801,0.448108 -2.98723,1.521681 -3.91016,2.890624 -0.73087,1.015651 -1.05831,2.252659 -1.11133,3.490235 -0.005,26.921812 -4e-4,53.843788 -0.002,80.765623 0.0448,1.5017 -0.16265,3.04149 0.32422,4.49414 0.91212,2.92278 3.90801,4.90528 6.92969,4.85938 h 84.531248 c 1.562542,-0.044 3.162736,0.15644 4.68164,-0.31055 2.826758,-0.78366 5.057944,-3.46395 5.089844,-6.43164 0.005,-26.830781 -9.4e-5,-53.663325 0.002,-80.494141 -0.0373,-1.500678 0.12716,-3.022416 -0.236328,-4.496093 -0.634568,-2.208345 -2.454549,-4.048318 -4.650391,-4.72461 -0.132688,-0.03055 0.789285,0.365104 1.052735,0.578125 1.555894,0.988589 2.565747,2.747353 2.623047,4.591797 0.007,26.941459 0.0019,53.884664 0.0039,80.826172 -0.03607,1.23257 0.103271,2.48056 -0.154297,3.69531 -0.582438,2.58444 -3.123468,4.44708 -5.736328,4.45508 -28.24388,0.004 -56.486569,9e-4 -84.730469,0.002 -1.33233,-0.0377 -2.68478,0.1142 -3.99609,-0.17968 -2.48697,-0.55168 -4.50454,-2.8564 -4.52539,-5.43555 -0.005,-26.997844 -6.2e-4,-53.996277 -0.002,-80.994141 0.0365,-1.323741 -0.14126,-2.684815 0.30078,-3.960938 0.53438,-1.666089 1.90077,-2.994962 3.51563,-3.621093 z"
       style="display:inline;opacity:1;vector-effect:none;fill:#3d3846;fill-opacity:0.99607843;stroke:none;stroke-width:2;stroke-linecap:butt;stroke-linejoin:miter;stroke-miterlimit:4;stroke-dasharray:none;stroke-dashoffset:0;stroke-opacity:1;marker:none;marker-start:none;marker-mid:none;marker-end:none;paint-order:normal;enable-background:new"
     id="path39" />
  <path
     d="m -143.03125,88.851562 v 1.128907 h 17.81641 v -1.128907 z m 19.00391,0 v 1.128907 h 57.007809 v -1.128907 z m 58.195309,0 v 1.128907 h 8.3125 v -1.128907 z"
       style="display:inline;opacity:1;vector-effect:none;fill:#3d3846;fill-opacity:0.99607843;stroke:none;stroke-width:2;stroke-linecap:butt;stroke-linejoin:miter;stroke-miterlimit:4;stroke-dasharray:none;stroke-dashoffset:0;stroke-opacity:1;marker:none;marker-start:none;marker-mid:none;marker-end:none;paint-order:normal;enable-background:new"
     id="path38" />
  <path
     d="m -114.52734,34.792969 v 1.125 h 47.507809 v -1.125 z m 48.695309,0 v 1.125 h 17.8125 v -1.125 z"
       style="display:inline;opacity:1;vector-effect:none;fill:#3d3846;fill-opacity:0.99607843;stroke:none;stroke-width:2;stroke-linecap:butt;stroke-linejoin:miter;stroke-miterlimit:4;stroke-dasharray:none;stroke-dashoffset:0;stroke-opacity:1;marker:none;marker-start:none;marker-mid:none;marker-end:none;paint-order:normal;enable-background:new"
     id="path37" />
  <path
     d="m -125.21484,62.949219 v 36.039062 h 1.1875 V 62.949219 Z"
       style="display:inline;opacity:1;vector-effect:none;fill:#3d3846;fill-opacity:0.99607843;stroke:none;stroke-width:2;stroke-linecap:butt;stroke-linejoin:miter;stroke-miterlimit:4;stroke-dasharray:none;stroke-dashoffset:0;stroke-opacity:1;marker:none;marker-start:none;marker-mid:none;marker-end:none;paint-order:normal;enable-background:new"
     id="path36" />
  <path
     d="M -67.019531,17.898437 V 108 h 1.1875 V 17.898437 Z"
       style="display:inline;opacity:1;vector-effect:none;fill:#3d3846;fill-opacity:0.99607843;stroke:none;stroke-width:2;stroke-linecap:butt;stroke-linejoin:miter;stroke-miterlimit:4;stroke-dasharray:none;stroke-dashoffset:0;stroke-opacity:1;marker:none;marker-start:none;marker-mid:none;marker-end:none;paint-order:normal;enable-background:new"
     id="path35" />
  <path
     d="M 14.277344,0.29882813 C 11.29801,0.33059159 8.3161749,0.30348811 5.3359375,0.3125 4.0588295,0.32651411 2.7788438,0.28481679 1.5039062,0.3359375 0.53974964,0.51868427 0.05981164,1.5886578 0.19921875,2.4882813 c 0.004634,3.9285181 -0.0107752,7.8566577 0.007813,11.7851567 0.0342497,1.059691 1.14495065,1.746131 2.13281255,1.546875 4.0942784,-0.01217 8.1901772,0.02529 12.2832032,-0.02149 1.046099,-0.167838 1.473877,-1.34991 1.330078,-2.289062 C 15.938298,9.5732901 15.986212,5.634257 15.929688,1.6992187 15.811977,0.91664501 15.072828,0.27799012 14.277344,0.29882813 Z M 12.636719,1.1035156 c 0.290044,0.2141952 0.05888,0.7566956 0.128906,1.1152344 v 1.5195313 h 2.835938 c -0.143751,0.3793367 -0.782649,0.093191 -1.150391,0.1757812 h -1.685547 v 8.2343755 h 1.324219 c -0.142198,0.542479 -1.38978,-0.255858 -1.324219,0.486328 V 15.125 c -0.39843,-0.09312 -0.102372,-0.754376 -0.1875,-1.105469 V 12.324219 H 3.5117188 v 1.398437 C 2.9665768,13.603377 3.6969534,12.393755 3.1015625,12.324219 H 0.48828125 C 0.63202881,11.944881 1.2709306,12.231028 1.6386719,12.148438 H 3.3242188 V 8.1171875 c 0.3984294,0.09312 0.1023719,0.7543773 0.1875,1.1054688 V 12.148438 C 3.8010678,12.084558 3.7975719,11.636503 4.2519531,11.810547 4.9647433,11.55671 5.1970382,10.751318 5.6171875,10.1875 L 9.4726563,4.0859375 h 0.9726567 c 0.42451,2.4842019 0.793437,4.9796783 1.253906,7.4570315 0.148184,0.295032 0.787326,0.265815 0.857422,0.464844 0.04265,-0.771015 0.01001,-1.558777 0.02148,-2.3378911 V 3.9140625 H 5.0234375 C 5.1671853,3.5347254 5.8060869,3.8208724 6.1738281,3.7382813 H 12.578125 V 1.1132812 Z m -0.08008,10.9042974 c -0.0016,0.02924 -0.0021,0.05871 -0.0039,0.08789 0.01212,-0.03435 0.01293,-0.06228 0.0039,-0.08789 z M 9.5,5.1484375 C 8.8337464,6.4865205 7.9741805,7.7134659 7.1992187,8.9882813 H 10.007813 C 9.8329593,7.7092187 9.5614646,6.4409007 9.5,5.1484375 Z M 6.8359375,9.5664063 c -0.3276979,0.6644497 -1.01385,1.2586017 -0.9824219,2.0351567 0.2880472,0.321242 0.9888081,0.0556 1.0136719,0.55664 0.7330717,-0.02231 1.4709733,-0.0039 2.2070313,-0.0098 0.1391112,-0.56151 1.5654222,-0.187739 1.2304692,-1.214844 -0.202522,-0.410052 0.09783,-1.3967929 -0.5175786,-1.3671877 z"
       style="display:inline;opacity:1;vector-effect:none;fill:#3d3846;fill-opacity:0.99607843;stroke:none;stroke-width:2;stroke-linecap:butt;stroke-linejoin:miter;stroke-miterlimit:4;stroke-dasharray:none;stroke-dashoffset:0;stroke-opacity:1;marker:none;marker-start:none;marker-mid:none;marker-end:none;paint-order:normal;enable-background:new"
     id="path34" />
</svg>
