<?xml version="1.0" encoding="UTF-8"?>
<svg height="16px" viewBox="0 0 16 16" width="16px" xmlns="http://www.w3.org/2000/svg" xmlns:xlink="http://www.w3.org/1999/xlink">
    <filter id="a" height="100%" width="100%" x="0%" y="0%">
        <feColorMatrix color-interpolation-filters="sRGB" values="0 0 0 0 1 0 0 0 0 1 0 0 0 0 1 0 0 0 1 0"/>
    </filter>
    <mask id="b">
        <g filter="url(#a)">
            <rect fill-opacity="0.5" height="19.2" width="19.2" x="-1.6" y="-1.6"/>
        </g>
    </mask>
    <linearGradient id="c" gradientUnits="userSpaceOnUse">
        <stop offset="0" stop-color="#ffffff"/>
        <stop offset="1" stop-color="#ffffff" stop-opacity="0"/>
    </linearGradient>
    <linearGradient id="d" gradientTransform="matrix(1.209037 0 0 1.153529 14.32742 23.174747)" x1="36.357143" x2="36.357143" xlink:href="#c" y1="6" y2="63.893143"/>
    <clipPath id="e">
        <rect height="152" width="192"/>
    </clipPath>
    <mask id="f">
        <g filter="url(#a)">
            <rect fill-opacity="0.4" height="19.2" width="19.2" x="-1.6" y="-1.6"/>
        </g>
    </mask>
    <radialGradient id="g" cx="48" cy="90.171875" gradientTransform="matrix(1.399234 0 0 1.148808 5.197957 23.402145)" r="42" xlink:href="#c"/>
    <clipPath id="h">
        <rect height="152" width="192"/>
    </clipPath>
    <mask id="i">
        <g filter="url(#a)">
            <rect fill-opacity="0.2" height="19.2" width="19.2" x="-1.6" y="-1.6"/>
        </g>
    </mask>
    <linearGradient id="j" gradientUnits="userSpaceOnUse">
        <stop offset="0" stop-color="#333333" stop-opacity="0"/>
        <stop offset="0.25"/>
        <stop offset="0.5"/>
        <stop offset="0.75"/>
        <stop offset="1" stop-color="#333333" stop-opacity="0"/>
    </linearGradient>
    <linearGradient id="k" gradientTransform="matrix(1.33609 0 0 0.563141 3.592507 65.433365)" x1="16" x2="80" xlink:href="#j" y1="71" y2="71"/>
    <clipPath id="l">
        <rect height="152" width="192"/>
    </clipPath>
    <mask id="m">
        <g filter="url(#a)">
            <rect fill-opacity="0.12" height="19.2" width="19.2" x="-1.6" y="-1.6"/>
        </g>
    </mask>
    <linearGradient id="n" gradientTransform="matrix(1.039181 0 0 0.563141 36.846298 11.37186)" x1="16" x2="80" xlink:href="#j" y1="71" y2="71"/>
    <clipPath id="o">
        <rect height="152" width="192"/>
    </clipPath>
    <mask id="p">
        <g filter="url(#a)">
            <rect fill-opacity="0.15" height="19.2" width="19.2" x="-1.6" y="-1.6"/>
        </g>
    </mask>
    <linearGradient id="q" gradientTransform="matrix(0 1.126281 -1.187635 0 15.468861 24.887238)" x1="48" x2="80" xlink:href="#j" y1="-23.5" y2="-23.5"/>
    <clipPath id="r">
        <rect height="152" width="192"/>
    </clipPath>
    <mask id="s">
        <g filter="url(#a)">
            <rect fill-opacity="0.15" height="19.2" width="19.2" x="-1.6" y="-1.6"/>
        </g>
    </mask>
    <linearGradient id="t" gradientTransform="matrix(0 1.407852 -0.593818 0 143.733475 11.37186)" x1="16" x2="80" xlink:href="#j" y1="71" y2="71"/>
    <clipPath id="u">
        <rect height="152" width="192"/>
    </clipPath>
    <g mask="url(#b)">
        <g clip-path="url(#e)" transform="matrix(1 0 0 1 -168 -16)">
            <path d="m 28.835938 30.097656 c -4.019532 0 -7.253907 3.085938 -7.253907 6.917969 v 83.054687 c 0 0.386719 0.050781 0.75 0.113281 1.117188 c 0.058594 0.34375 0.117188 0.691406 0.226563 1.011719 c 0.011719 0.035156 0.023437 0.070312 0.039063 0.105469 c 0.117187 0.332031 0.28125 0.632812 0.453124 0.9375 c 0.171876 0.316406 0.378907 0.617187 0.601563 0.902343 c 0.226563 0.285157 0.453125 0.546875 0.71875 0.792969 c 0.53125 0.492188 1.140625 0.941406 1.8125 1.261719 c 0.339844 0.160156 0.695313 0.285156 1.058594 0.398437 c -0.308594 -0.117187 -0.585938 -0.273437 -0.867188 -0.433594 c -0.007812 -0.007812 -0.03125 0.003907 -0.039062 0 c -0.039063 -0.023437 -0.074219 -0.050781 -0.113281 -0.074218 c -0.144532 -0.085938 -0.277344 -0.1875 -0.414063 -0.285156 c -0.128906 -0.09375 -0.257813 -0.1875 -0.378906 -0.289063 c -0.214844 -0.1875 -0.417969 -0.398437 -0.605469 -0.613281 c -0.128906 -0.152344 -0.261719 -0.308594 -0.375 -0.46875 c -0.03125 -0.046875 -0.046875 -0.101563 -0.078125 -0.144532 c -0.078125 -0.121093 -0.15625 -0.234374 -0.226563 -0.359374 c -0.121093 -0.226563 -0.246093 -0.480469 -0.339843 -0.722657 c -0.007813 -0.023437 -0.027344 -0.046875 -0.039063 -0.070312 c -0.035156 -0.109375 -0.042968 -0.21875 -0.074218 -0.324219 c -0.035157 -0.125 -0.085938 -0.234375 -0.113282 -0.363281 c -0.085937 -0.394531 -0.152344 -0.804688 -0.152344 -1.222657 v -83.054687 c 0 -3.210937 2.683594 -5.769531 6.046876 -5.769531 h 87.050781 c 3.363281 0 6.046875 2.558594 6.046875 5.769531 v 83.054687 c 0 0.417969 -0.066406 0.828126 -0.152344 1.222657 c -0.054688 0.238281 -0.109375 0.460937 -0.191406 0.6875 c -0.007813 0.023437 -0.027344 0.046875 -0.035156 0.070312 c -0.078126 0.199219 -0.167969 0.425781 -0.265626 0.613281 c -0.050781 0.09375 -0.09375 0.195313 -0.152343 0.289063 c -0.066407 0.109375 -0.152344 0.214844 -0.226563 0.324219 c -0.113281 0.160156 -0.246094 0.316406 -0.375 0.46875 c -0.175781 0.199218 -0.367187 0.398437 -0.566406 0.574218 c -0.015625 0.011719 -0.027344 0.027344 -0.039062 0.039063 c -0.167969 0.144531 -0.34375 0.269531 -0.53125 0.394531 c -0.121094 0.085938 -0.246094 0.175782 -0.375 0.253906 c -0.011719 0.003907 -0.03125 -0.007812 -0.039063 0 c -0.28125 0.160157 -0.558594 0.316407 -0.867187 0.433594 c 0.363281 -0.113281 0.71875 -0.238281 1.054687 -0.398437 c 0.675781 -0.320313 1.285156 -0.769531 1.816406 -1.261719 c 0.265625 -0.246094 0.492188 -0.507812 0.714844 -0.792969 c 0.226563 -0.285156 0.429687 -0.585937 0.605469 -0.902343 c 0.171875 -0.304688 0.335937 -0.605469 0.453125 -0.9375 c 0.015625 -0.035157 0.027343 -0.070313 0.039062 -0.105469 c 0.109375 -0.320313 0.167969 -0.667969 0.226563 -1.011719 c 0.0625 -0.367188 0.113281 -0.730469 0.113281 -1.117188 v -83.054687 c 0 -3.832031 -3.234375 -6.917969 -7.253906 -6.917969 z m 0 0" fill="url(#d)"/>
        </g>
    </g>
    <g mask="url(#f)">
        <g clip-path="url(#h)" transform="matrix(1 0 0 1 -168 -16)">
            <path d="m 28.835938 126.992188 c -4.019532 0 -7.253907 -3.085938 -7.253907 -6.921876 v -83.054687 c 0 -0.382813 0.050781 -0.75 0.113281 -1.117187 c 0.058594 -0.339844 0.117188 -0.6875 0.226563 -1.007813 c 0.011719 -0.035156 0.023437 -0.074219 0.039063 -0.109375 c 0.117187 -0.332031 0.28125 -0.628906 0.453124 -0.9375 c 0.171876 -0.3125 0.378907 -0.617188 0.601563 -0.898438 c 0.226563 -0.285156 0.453125 -0.546874 0.71875 -0.792968 c 0.53125 -0.496094 1.140625 -0.941406 1.8125 -1.261719 c 0.339844 -0.164063 0.695313 -0.285156 1.058594 -0.398437 c -0.308594 0.117187 -0.585938 0.273437 -0.867188 0.433593 c -0.007812 0.003907 -0.03125 -0.007812 -0.039062 0 c -0.039063 0.023438 -0.074219 0.046875 -0.113281 0.070313 c -0.144532 0.089844 -0.277344 0.191406 -0.414063 0.289062 c -0.128906 0.09375 -0.257813 0.1875 -0.378906 0.289063 c -0.214844 0.1875 -0.417969 0.398437 -0.605469 0.613281 c -0.128906 0.148438 -0.261719 0.304688 -0.375 0.46875 c -0.03125 0.042969 -0.046875 0.097656 -0.078125 0.144531 c -0.078125 0.117188 -0.15625 0.234375 -0.226563 0.359375 c -0.121093 0.222656 -0.246093 0.480469 -0.339843 0.722656 c -0.007813 0.023438 -0.027344 0.042969 -0.039063 0.070313 c -0.035156 0.105469 -0.042968 0.214844 -0.074218 0.324219 c -0.035157 0.125 -0.085938 0.234375 -0.113282 0.359375 c -0.085937 0.394531 -0.152344 0.804687 -0.152344 1.226562 v 83.054688 c 0 3.207031 2.683594 5.765625 6.046876 5.765625 h 87.050781 c 3.363281 0 6.046875 -2.558594 6.046875 -5.765625 v -83.054688 c 0 -0.421875 -0.066406 -0.832031 -0.152344 -1.226562 c -0.054688 -0.238281 -0.109375 -0.457031 -0.191406 -0.683594 c -0.007813 -0.027344 -0.027344 -0.046875 -0.035156 -0.070313 c -0.078126 -0.203124 -0.167969 -0.425781 -0.265626 -0.613281 c -0.050781 -0.097656 -0.09375 -0.199219 -0.152343 -0.289062 c -0.066407 -0.113281 -0.152344 -0.21875 -0.226563 -0.324219 c -0.113281 -0.164062 -0.246094 -0.320312 -0.375 -0.46875 c -0.175781 -0.203125 -0.367187 -0.402344 -0.566406 -0.578125 c -0.015625 -0.011719 -0.027344 -0.023437 -0.039062 -0.035156 c -0.167969 -0.144531 -0.34375 -0.269531 -0.53125 -0.398438 c -0.121094 -0.082031 -0.246094 -0.175781 -0.375 -0.25 c -0.011719 -0.007812 -0.03125 0.003907 -0.039063 0 c -0.28125 -0.160156 -0.558594 -0.316406 -0.867187 -0.433593 c 0.363281 0.113281 0.71875 0.234374 1.054687 0.398437 c 0.675781 0.320313 1.285156 0.765625 1.816406 1.261719 c 0.265625 0.246094 0.492188 0.507812 0.714844 0.792968 c 0.226563 0.28125 0.429687 0.585938 0.605469 0.898438 c 0.171875 0.308594 0.335937 0.605469 0.453125 0.9375 c 0.015625 0.035156 0.027343 0.074219 0.039062 0.109375 c 0.109375 0.320313 0.167969 0.667969 0.226563 1.007813 c 0.0625 0.367187 0.113281 0.734374 0.113281 1.117187 v 83.054687 c 0 3.835938 -3.234375 6.921876 -7.253906 6.921876 z m 0 0" fill="url(#g)"/>
        </g>
    </g>
    <g mask="url(#i)">
        <g clip-path="url(#l)" transform="matrix(1 0 0 1 -168 -16)">
            <path d="m 24.96875 104.851562 h 85.511719 v 1.128907 h -85.511719 z m 0 0" fill="url(#k)"/>
        </g>
    </g>
    <g mask="url(#m)">
        <g clip-path="url(#o)" transform="matrix(1 0 0 1 -168 -16)">
            <path d="m 53.472656 50.792969 h 66.507813 v 1.125 h -66.507813 z m 0 0" fill="url(#n)"/>
        </g>
    </g>
    <g mask="url(#p)">
        <g clip-path="url(#r)" transform="matrix(1 0 0 1 -168 -16)">
            <path d="m 43.972656 78.949219 v 36.039062 h -1.1875 v -36.039062 z m 0 0" fill="url(#q)"/>
        </g>
    </g>
    <g mask="url(#s)">
        <g clip-path="url(#u)" transform="matrix(1 0 0 1 -168 -16)">
            <path d="m 102.167969 33.898438 v 90.101562 h -1.1875 v -90.101562 z m 0 0" fill="url(#t)"/>
        </g>
    </g>
    <path d="m 1.78125 0.3125 c -0.878906 0 -1.582031 0.769531 -1.582031 1.722656 v 12.0625 c 0 0.953125 0.703125 1.722656 1.582031 1.722656 h 12.589844 c 0.875 0 1.582031 -0.769531 1.582031 -1.722656 v -12.0625 c 0 -0.953125 -0.707031 -1.722656 -1.582031 -1.722656 z m 10.796875 0.800781 h 0.1875 v 2.625 h 2.835937 v 0.175781 h -2.835937 v 8.234376 h 1.324219 v 0.175781 h -1.324219 v 2.800781 h -0.1875 v -2.800781 h -9.066406 v 1.398437 h -0.1875 v -1.398437 h -2.835938 v -0.175781 h 2.835938 v -4.03125 h 0.1875 v 4.03125 h 0.179687 l 0.0625 -0.3125 h 0.234375 c 0.167969 0 0.304688 -0.019532 0.410157 -0.066407 c 0.117187 -0.046875 0.230468 -0.136719 0.335937 -0.265625 c 0.117187 -0.132812 0.253906 -0.320312 0.410156 -0.566406 l 4.328125 -6.851562 h 0.972656 l 1.179688 7.140624 c 0.027344 0.160157 0.0625 0.289063 0.113281 0.378907 c 0.058594 0.085937 0.136719 0.148437 0.234375 0.1875 c 0.101563 0.03125 0.230469 0.042969 0.386719 0.042969 h 0.160156 l -0.0625 0.3125 h 0.121094 v -8.234376 h -7.554687 v -0.175781 h 7.554687 z m -3.078125 4.035157 c -0.082031 0.183593 -0.175781 0.363281 -0.273438 0.542968 c -0.09375 0.167969 -0.195312 0.347656 -0.3125 0.539063 c -0.109374 0.1875 -0.234374 0.398437 -0.386718 0.636719 l -1.328125 2.121093 h 2.808593 l -0.308593 -2.019531 c -0.050781 -0.335938 -0.097657 -0.65625 -0.136719 -0.957031 c -0.035156 -0.296875 -0.054688 -0.585938 -0.0625 -0.863281 z m -2.664062 4.417968 l -0.757813 1.210938 c -0.082031 0.136718 -0.144531 0.261718 -0.1875 0.367187 c -0.03125 0.101563 -0.046875 0.195313 -0.046875 0.277344 c 0 0.148437 0.058594 0.253906 0.171875 0.324219 c 0.117187 0.0625 0.292969 0.089844 0.523437 0.089844 h 0.285157 l -0.0625 0.3125 h 2.3125 l 0.0625 -0.3125 h 0.289062 c 0.265625 0 0.480469 -0.046876 0.644531 -0.148438 c 0.167969 -0.105469 0.25 -0.253906 0.25 -0.4375 c 0 -0.0625 -0.003906 -0.128906 -0.011718 -0.195312 c 0 -0.078126 -0.003906 -0.144532 -0.015625 -0.195313 l -0.195313 -1.292969 z m 0 0" fill="#241f31"/>
</svg>
