<?xml version="1.0" encoding="UTF-8" standalone="no"?>
<svg
   xmlns:dc="http://purl.org/dc/elements/1.1/"
   xmlns:cc="http://creativecommons.org/ns#"
   xmlns:rdf="http://www.w3.org/1999/02/22-rdf-syntax-ns#"
   xmlns:svg="http://www.w3.org/2000/svg"
   xmlns="http://www.w3.org/2000/svg"
   xmlns:sodipodi="http://sodipodi.sourceforge.net/DTD/sodipodi-0.dtd"
   xmlns:inkscape="http://www.inkscape.org/namespaces/inkscape"
   height="16"
   width="16"
   id="svg2"
   version="1.1"
   inkscape:version="0.91 r13725"
   sodipodi:docname="info1.svg">
  <metadata
     id="metadata10">
    <rdf:RDF>
      <cc:Work
         rdf:about="">
        <dc:format>image/svg+xml</dc:format>
        <dc:type
           rdf:resource="http://purl.org/dc/dcmitype/StillImage" />
        <dc:title></dc:title>
      </cc:Work>
    </rdf:RDF>
  </metadata>
  <defs
     id="defs8" />
  <sodipodi:namedview
     pagecolor="#ffffff"
     bordercolor="#666666"
     borderopacity="1"
     objecttolerance="10"
     gridtolerance="10"
     guidetolerance="10"
     inkscape:pageopacity="0"
     inkscape:pageshadow="2"
     inkscape:window-width="1146"
     inkscape:window-height="686"
     id="namedview6"
     showgrid="false"
     inkscape:zoom="15.104"
     inkscape:cx="18.131016"
     inkscape:cy="4.0924277"
     inkscape:window-x="272"
     inkscape:window-y="173"
     inkscape:window-maximized="0"
     inkscape:current-layer="svg2" />
  <path
     d="m 9.23075,13.36615 0,-6.8676901 -2.38769,0 0,6.8676901 2.38769,0 z M 8.0246,5.2923099 c 0.78769,0 1.40308,-0.61539 1.40308,-1.42769 0,-0.76308 -0.61539,-1.37847 -1.40308,-1.37847 -0.78769,0 -1.40308,0.61539 -1.40308,1.37847 0,0.78769 0.61539,1.42769 1.40308,1.42769 z M 8,-5.0000001e-8 C 12.40616,-5.0000001e-8 16,3.5692299 16,8 16,12.40615 12.40616,16 8,16 3.56923,16 0,12.40615 0,8.0000001 0,3.5692299 3.56923,-5.0000001e-8 8,-5.0000001e-8 Z"
     id="path4"
     style="fill:#bebebe;fill-opacity:1"
     inkscape:connector-curvature="0" />
</svg>
