<?xml version="1.0" encoding="UTF-8" standalone="no"?>
<!-- Created with Inkscape (http://www.inkscape.org/) -->

<svg
   xmlns:dc="http://purl.org/dc/elements/1.1/"
   xmlns:cc="http://creativecommons.org/ns#"
   xmlns:rdf="http://www.w3.org/1999/02/22-rdf-syntax-ns#"
   xmlns:svg="http://www.w3.org/2000/svg"
   xmlns="http://www.w3.org/2000/svg"
   xmlns:sodipodi="http://sodipodi.sourceforge.net/DTD/sodipodi-0.dtd"
   xmlns:inkscape="http://www.inkscape.org/namespaces/inkscape"
   width="48"
   height="48"
   id="svg2985"
   version="1.1"
   inkscape:version="0.48.5 r10040"
   sodipodi:docname="truetype.svg">
  <defs
     id="defs2987" />
  <sodipodi:namedview
     id="base"
     pagecolor="#ffffff"
     bordercolor="#666666"
     borderopacity="1.0"
     inkscape:pageopacity="0.0"
     inkscape:pageshadow="2"
     inkscape:zoom="7.8481082"
     inkscape:cx="6.7869956"
     inkscape:cy="24.36298"
     inkscape:current-layer="layer1"
     showgrid="true"
     inkscape:grid-bbox="true"
     inkscape:document-units="px"
     inkscape:window-width="1441"
     inkscape:window-height="794"
     inkscape:window-x="78"
     inkscape:window-y="55"
     inkscape:window-maximized="0" />
  <metadata
     id="metadata2990">
    <rdf:RDF>
      <cc:Work
         rdf:about="">
        <dc:format>image/svg+xml</dc:format>
        <dc:type
           rdf:resource="http://purl.org/dc/dcmitype/StillImage" />
        <dc:title></dc:title>
      </cc:Work>
    </rdf:RDF>
  </metadata>
  <g
     id="layer1"
     inkscape:label="Layer 1"
     inkscape:groupmode="layer"
     transform="translate(0,32)">
    <g
       id="g2999">
      <g
         id="text3920"
         style="font-size:48.11028671px;font-style:normal;font-variant:normal;font-weight:normal;font-stretch:normal;line-height:125%;letter-spacing:0px;word-spacing:0px;fill:#9097a3;fill-opacity:1;stroke:none;font-family:FreeSerif;-inkscape-font-specification:FreeSerif">
        <path
           d="m 15.111704,-26.236127 -2.597956,0 c -2.6941827,3e-5 -4.506335,0.368875 -5.4364622,1.106537 -0.8980618,0.737719 -1.6357522,2.421577 -2.2130732,5.05158 l -1.1546468,0 0.2886617,-8.178749 27.1342015,0 0.288662,8.178749 -1.154647,0 c -0.545277,-2.662076 -1.282967,-4.345935 -2.213073,-5.05158 -0.898083,-0.737662 -2.710235,-1.106507 -5.436463,-1.106537 l -2.597955,0 0,24.5843566 c -1.7e-5,1.7640473 0.272608,2.9026563 0.817875,3.4158303 0.545231,0.5131777 1.812134,0.8178759 3.800712,0.9140955 l 0,0.9140954 -14.048203,0 0,-0.9140954 c 1.988549,-0.1282931 3.239415,-0.449028 3.752602,-0.9622058 0.513165,-0.5452475 0.769753,-1.84422389 0.769765,-3.8969332 l 0,-24.0551434"
           style=""
           id="path2996" />
      </g>
      <g
         id="text3928"
         style="font-size:48.11028671px;font-style:normal;font-variant:normal;font-weight:normal;font-stretch:normal;line-height:125%;letter-spacing:0px;word-spacing:0px;fill:#55627a;fill-opacity:1;stroke:none;font-family:FreeSerif;-inkscape-font-specification:FreeSerif">
        <path
           d="m 27.981047,-17.571619 -2.597955,0 c -2.694183,3e-5 -4.506335,0.368875 -5.436463,1.106537 -0.898062,0.737719 -1.635752,2.421577 -2.213073,5.05158 l -1.154647,0 0.288662,-8.178749 27.134202,0 0.288661,8.178749 -1.154646,0 c -0.545277,-2.662077 -1.282967,-4.345935 -2.213074,-5.05158 -0.898082,-0.737662 -2.710235,-1.106507 -5.436462,-1.106537 l -2.597956,0 0,24.5843564 c -1.7e-5,1.7640474 0.272608,2.9026563 0.817875,3.4158306 0.545232,0.513178 1.812135,0.817876 3.800713,0.914095 l 0,0.914096 -14.048204,0 0,-0.914096 c 1.988549,-0.128293 3.239415,-0.449028 3.752603,-0.962205 0.513164,-0.545248 0.769752,-1.8442244 0.769764,-3.8969337 l 0,-24.0551433"
           style=""
           id="path2992" />
      </g>
    </g>
  </g>
</svg>
