<?xml version="1.0" encoding="UTF-8" standalone="no"?>
<!-- Created with Inkscape (http://www.inkscape.org/) -->

<svg
   xmlns:dc="http://purl.org/dc/elements/1.1/"
   xmlns:cc="http://creativecommons.org/ns#"
   xmlns:rdf="http://www.w3.org/1999/02/22-rdf-syntax-ns#"
   xmlns:svg="http://www.w3.org/2000/svg"
   xmlns="http://www.w3.org/2000/svg"
   xmlns:sodipodi="http://sodipodi.sourceforge.net/DTD/sodipodi-0.dtd"
   xmlns:inkscape="http://www.inkscape.org/namespaces/inkscape"
   width="48"
   height="48"
   id="svg2985"
   version="1.1"
   inkscape:version="0.48.5 r10040"
   sodipodi:docname="type1.svg">
  <defs
     id="defs2987" />
  <sodipodi:namedview
     id="base"
     pagecolor="#ffffff"
     bordercolor="#666666"
     borderopacity="1.0"
     inkscape:pageopacity="0.0"
     inkscape:pageshadow="2"
     inkscape:zoom="7.8481082"
     inkscape:cx="-3.6418474"
     inkscape:cy="24.36298"
     inkscape:current-layer="layer1"
     showgrid="true"
     inkscape:grid-bbox="true"
     inkscape:document-units="px"
     inkscape:window-width="1600"
     inkscape:window-height="837"
     inkscape:window-x="0"
     inkscape:window-y="27"
     inkscape:window-maximized="1" />
  <metadata
     id="metadata2990">
    <rdf:RDF>
      <cc:Work
         rdf:about="">
        <dc:format>image/svg+xml</dc:format>
        <dc:type
           rdf:resource="http://purl.org/dc/dcmitype/StillImage" />
        <dc:title />
      </cc:Work>
    </rdf:RDF>
  </metadata>
  <g
     id="layer1"
     inkscape:label="Layer 1"
     inkscape:groupmode="layer"
     transform="translate(0,32)">
    <text
       xml:space="preserve"
       style="font-size:10px;font-style:normal;font-variant:normal;font-weight:normal;font-stretch:normal;line-height:125%;letter-spacing:0px;word-spacing:0px;fill:#000000;fill-opacity:1;stroke:none;font-family:FreeSans;-inkscape-font-specification:FreeSans"
       x="31.345135"
       y="40.354843"
       id="text3792"
       sodipodi:linespacing="125%"
       transform="translate(0,-32)"><tspan
         sodipodi:role="line"
         id="tspan3794"
         x="31.345135"
         y="40.354843" /></text>
    <g
       id="g3069"
       style="fill:#777777;fill-opacity:1;stroke:none"
       transform="matrix(0.82049312,0,0,0.91395294,4.3081651,-0.68837686)">
      <g
         id="text3005"
         style="font-size:39.9310379px;font-style:normal;font-variant:normal;font-weight:normal;font-stretch:normal;line-height:125%;letter-spacing:0px;word-spacing:0px;fill:#777777;fill-opacity:1;stroke:none;font-family:FreeSans;-inkscape-font-specification:FreeSans"
         transform="scale(0.93540356,1.0690573)">
        <path
           d="m 38.420333,0.10626464 c 1.490744,2.35e-6 2.755226,-0.17303197 3.793449,-0.5191035 1.038189,-0.34606577 1.796878,-0.79861704 2.276069,-1.35765524 0.505773,-0.5590298 0.851842,-1.1047534 1.038207,-1.6371726 0.212945,-0.5590281 0.319427,-1.1446827 0.319449,-1.7569657 -2.2e-5,-2.2095076 -1.783606,-3.7801268 -5.35076,-4.7118624 L 33.26923,-11.793185 c -3.806764,-0.98495 -5.710142,-3.247707 -5.710139,-6.788276 -3e-6,-2.635425 0.91841,-4.711837 2.755242,-6.229242 1.863441,-1.543971 4.392404,-2.315971 7.586897,-2.316 3.354191,2.9e-5 5.963016,0.798649 7.826483,2.395862 1.863426,1.570647 2.80846,3.780162 2.835104,6.628552 l -3.513931,0 c -0.02664,-1.890046 -0.665537,-3.340873 -1.91669,-4.352483 -1.25119,-1.038181 -3.034774,-1.557284 -5.350759,-1.55731 -1.969942,2.6e-5 -3.553872,0.452578 -4.751794,1.357655 -1.171317,0.905128 -1.756972,2.089747 -1.756965,3.553862 -7e-6,1.11809 0.359372,1.996572 1.078138,2.635449 0.71875,0.638915 1.956611,1.197949 3.713586,1.677103 l 7.30738,1.956621 c 1.969911,0.532429 3.487289,1.437532 4.552139,2.715311 1.091424,1.2778044 1.637147,2.8084927 1.637172,4.5920693 -2.5e-5,0.7720073 -0.106507,1.5440066 -0.319448,2.3160002 -0.186369,0.7453843 -0.545748,1.5306939 -1.078138,2.35593123 -0.532437,0.79862327 -1.211264,1.5040709 -2.036483,2.11634497 -0.825262,0.6122765 -1.93002,1.1180692 -3.314276,1.5173795 -1.357672,0.3993096 -2.901671,0.5989646 -4.632001,0.5989655 -1.09146,-9e-7 -2.142977,-0.093173 -3.154552,-0.2795172 C 34.04122,2.9413678 33.029635,2.6352302 31.991436,2.1826786 30.953223,1.7035069 30.061431,1.1045419 29.316057,0.3857819 c -0.745383,-0.74537655 -1.370969,-1.7303412 -1.876759,-2.9548968 -0.479175,-1.2245456 -0.732071,-2.6354408 -0.75869,-4.23269 l 3.513932,0 0,0.1996552 c -6e-6,0.8252497 0.119787,1.597249 0.359379,2.3160002 0.266201,0.7187647 0.678821,1.4242123 1.237862,2.116345 0.585648,0.6921419 1.437509,1.25117588 2.555587,1.67710357 1.144679,0.39931293 2.502333,0.59896792 4.072965,0.59896557 M 22.757383,-18.102289 c -2.4e-5,2.475743 -0.758713,4.472293 -2.276069,5.989656 -1.490779,1.490772 -3.447398,2.2361505 -5.869863,2.2361382 l -9.1442073,0 0,12.3386907 -3.7135865,0 0,-29.1097269 12.0192428,0 c 2.875016,2.9e-5 5.084531,0.745408 6.628552,2.236138 1.570597,1.464164 2.355907,3.567196 2.355931,6.309104 m -17.2901393,4.951449 7.7466213,0 c 1.78357,1.6e-5 3.167845,-0.452536 4.152828,-1.357655 1.011567,-0.905086 1.517359,-2.156257 1.517379,-3.753518 -2e-5,-1.597219 -0.505812,-2.84839 -1.517379,-3.753517 -0.984983,-0.905079 -2.369258,-1.35763 -4.152828,-1.357656 l -7.7466213,0 0,10.222346"
           style="fill:#777777;fill-opacity:1;stroke:none"
           id="path3066"
           inkscape:connector-curvature="0" />
      </g>
      <g
         id="text3009"
         style="font-size:11.72270012px;font-style:normal;font-variant:normal;font-weight:normal;font-stretch:normal;line-height:125%;letter-spacing:0px;word-spacing:0px;fill:#777777;fill-opacity:1;stroke:none;font-family:FreeSans;-inkscape-font-specification:FreeSans"
         transform="scale(1.17227,0.85304579)">
        <path
           d="m 37.621676,9.319547 -1.840464,0 0,-0.7385301 c 0.797142,-0.10159 1.316848,-0.2422623 1.559119,-0.4220172 0.242267,-0.1797408 0.453275,-0.5900349 0.633026,-1.2308835 l 0.679917,0 0,8.3113948 -1.031598,0 0,-5.919964 m -11.3571,2.028027 0,2.930675 5.040762,0 0,0.961262 -6.130973,0 0,-8.5458489 5.919964,0 0,0.9612615 -4.829753,0 0,2.7313894 4.653912,0 0,0.961261 -4.653912,0 M 23.647484,9.20232 c -7e-6,0.7268127 -0.222738,1.312947 -0.668194,1.758405 -0.437654,0.437651 -1.012065,0.656475 -1.723237,0.656471 l -2.684498,0 0,3.622315 -1.090211,0 0,-8.5458489 3.528532,0 c 0.844029,8.6e-6 1.492685,0.2188321 1.945969,0.6564713 0.461086,0.4298398 0.691632,1.0472347 0.691639,1.8521866 m -5.075929,1.453615 2.274204,0 c 0.523609,4e-6 0.929995,-0.132853 1.21916,-0.398572 0.29697,-0.2657093 0.445457,-0.6330202 0.445463,-1.1019338 -6e-6,-0.4689015 -0.148493,-0.8362124 -0.445463,-1.1019338 -0.289165,-0.2657071 -0.695551,-0.3985643 -1.21916,-0.3985718 l -2.274204,0 0,3.0010114 m -5.412774,1.230883 0,3.352693 -1.090211,0 0,-3.352693 -3.2940786,-5.1931559 1.3481106,0 2.508658,4.1615589 2.438321,-4.1615589 1.30122,0 -3.21202,5.1931559 M 5.43572,7.6549236 l 0,7.5845874 -1.0902111,0 0,-7.5845874 -2.813448,0 0,-0.9612615 6.7053844,0 0,0.9612615 -2.8017253,0"
           style="fill:#777777;fill-opacity:1;stroke:none"
           id="path3060"
           inkscape:connector-curvature="0" />
      </g>
    </g>
  </g>
</svg>
